<svg xmlns="http://www.w3.org/2000/svg" xmlns:xlink="http://www.w3.org/1999/xlink" width="500" zoomAndPan="magnify" viewBox="0 0 375 374.999991" height="500" preserveAspectRatio="xMidYMid meet" version="1.0"><defs><clipPath id="fb3cc41fca"><path d="M 114 115.21875 L 261 115.21875 L 261 259.96875 L 114 259.96875 Z M 114 115.21875 " clip-rule="nonzero"/></clipPath></defs><g clip-path="url(#fb3cc41fca)"><path fill="#c8c8c8" d="M 121.851562 115.183594 L 114.390625 122.640625 L 251.566406 259.816406 L 259.027344 252.359375 L 246.929688 240.261719 L 260.574219 240.261719 L 260.574219 134.738281 L 141.410156 134.738281 Z M 151.960938 145.292969 L 250.019531 145.292969 L 250.019531 211.695312 L 218.363281 180.039062 L 202.535156 195.867188 Z M 123.398438 146.527344 L 123.398438 240.261719 L 217.128906 240.261719 L 206.574219 229.707031 L 183.617188 229.707031 L 195.097656 218.230469 L 187.636719 210.769531 L 181.433594 216.972656 L 155.050781 190.589844 L 133.949219 211.695312 L 133.949219 157.082031 Z M 231.554688 155.84375 C 231.035156 155.84375 230.519531 155.894531 230.011719 155.996094 C 229.5 156.097656 229.007812 156.246094 228.527344 156.445312 C 228.046875 156.644531 227.589844 156.890625 227.15625 157.175781 C 226.726562 157.464844 226.324219 157.792969 225.957031 158.160156 C 225.589844 158.53125 225.261719 158.929688 224.972656 159.359375 C 224.6875 159.792969 224.441406 160.25 224.242188 160.730469 C 224.042969 161.210938 223.894531 161.703125 223.792969 162.214844 C 223.691406 162.722656 223.640625 163.238281 223.640625 163.757812 C 223.640625 164.277344 223.691406 164.792969 223.792969 165.300781 C 223.894531 165.8125 224.042969 166.304688 224.242188 166.785156 C 224.441406 167.265625 224.6875 167.722656 224.972656 168.15625 C 225.261719 168.585938 225.589844 168.988281 225.957031 169.355469 C 226.324219 169.722656 226.726562 170.050781 227.15625 170.339844 C 227.589844 170.625 228.046875 170.871094 228.527344 171.070312 C 229.007812 171.269531 229.5 171.417969 230.011719 171.519531 C 230.519531 171.621094 231.035156 171.671875 231.554688 171.671875 C 232.074219 171.671875 232.589844 171.621094 233.097656 171.519531 C 233.609375 171.417969 234.101562 171.269531 234.582031 171.070312 C 235.0625 170.871094 235.519531 170.625 235.953125 170.339844 C 236.382812 170.050781 236.785156 169.722656 237.152344 169.355469 C 237.519531 168.988281 237.847656 168.585938 238.136719 168.15625 C 238.421875 167.722656 238.667969 167.265625 238.867188 166.785156 C 239.066406 166.304688 239.214844 165.8125 239.316406 165.300781 C 239.417969 164.792969 239.46875 164.277344 239.46875 163.757812 C 239.46875 163.238281 239.417969 162.722656 239.316406 162.214844 C 239.214844 161.703125 239.066406 161.210938 238.867188 160.730469 C 238.667969 160.25 238.421875 159.792969 238.136719 159.359375 C 237.847656 158.929688 237.519531 158.53125 237.152344 158.160156 C 236.785156 157.792969 236.382812 157.464844 235.953125 157.175781 C 235.519531 156.890625 235.0625 156.644531 234.582031 156.445312 C 234.101562 156.246094 233.609375 156.097656 233.097656 155.996094 C 232.589844 155.894531 232.074219 155.84375 231.554688 155.84375 Z M 218.363281 194.960938 L 250.019531 226.617188 L 250.019531 229.707031 L 236.378906 229.707031 L 209.996094 203.328125 Z M 155.050781 205.511719 L 173.972656 224.433594 L 168.695312 229.707031 L 133.949219 229.707031 L 133.949219 226.617188 Z M 155.050781 205.511719 " fill-opacity="1" fill-rule="nonzero"/></g></svg>